<?xml version="1.0" encoding="utf-8"?>
<!-- Generator: Adobe Illustrator 20.1.0, SVG Export Plug-In . SVG Version: 6.00 Build 0)  -->
<svg version="1.1" id="Layer_1" xmlns="http://www.w3.org/2000/svg" xmlns:xlink="http://www.w3.org/1999/xlink" x="0px" y="0px"
	 viewBox="0 0 222.8 201.2" style="enable-background:new 0 0 222.8 201.2;" xml:space="preserve">
<style type="text/css">
	.st0{fill:none;stroke:#000000;stroke-miterlimit:10;}
</style>
<path class="st0" d="M-0.9-121.2c0,0-97.6,47.4-50-54c0,0-54.9,134-67.3-4.2c0,0,18.8,127.4-54.1,38.1c0,0,74.8,75.4-14.8,62.8
	c0,0,90.7,9.6,23.5,68.4c0,0,69.6-76.1,79.5,14.1c0,0-20.5-105.8,61.8-37.6C-22.3-33.5-96-87.9-0.9-121.2z"/>
<path class="st0" d="M213,68.8c0,0-133.8,80.2-50-54c0,0-54.9,134-67.3-4.2c0,0,37.2,163.5-54.1,38.1c0,0,74.8,75.4-14.8,62.8
	c0,0,122.1-22.9,23.5,68.4c0,0,69.6-100.2,79.5,14.1c0,0-34.7-133.4,61.8-37.6C191.6,156.5,92.6,102.4,213,68.8z"/>
</svg>
